<svg
								xmlns="http://www.w3.org/2000/svg"
								width="20"
								height="20"
								viewBox="0 0 20 20"
								fill="none"
							>
								<path
									d="M9.97494 1.66699C5.37494 1.66699 1.6416 5.40033 1.6416 10.0003C1.6416 14.6003 5.37494 18.3337 9.97494 18.3337C14.5749 18.3337 18.3083 14.6003 18.3083 10.0003C18.3083 5.40033 14.5833 1.66699 9.97494 1.66699ZM13.0999 10.292L9.99994 13.817L9.63327 14.2337C9.12494 14.8087 8.70827 14.6587 8.70827 13.8837V10.5837H7.2916C6.64993 10.5837 6.47493 10.192 6.89993 9.70866L9.99994 6.18366L10.3666 5.76699C10.8749 5.19199 11.2916 5.34199 11.2916 6.11699V9.41699H12.7083C13.3499 9.41699 13.5249 9.80866 13.0999 10.292Z"
									fill="url(#paint0_linear_115_67130)"
								/>
								<defs>
									<linearGradient
										id="paint0_linear_115_67130"
										x1="1.6416"
										y1="10.0003"
										x2="18.3083"
										y2="10.0003"
										gradientUnits="userSpaceOnUse"
									>
										<stop stop-color="#5151D0" />
										<stop offset="1" stop-color="#D4358F" />
									</linearGradient>
								</defs>
							</svg>